<svg width="48" height="48" viewBox="0 0 48 48" fill="none" xmlns="http://www.w3.org/2000/svg">
<path d="M22.4464 38.581L22.4435 38.5784C17.2542 33.8728 13.1081 30.1031 10.236 26.5893C7.38592 23.1024 6 20.1125 6 17C6 11.927 9.94219 8 15 8C17.8754 8 20.6683 9.34892 22.4823 11.4626L24 13.2309L25.5177 11.4626C27.3317 9.34892 30.1246 8 33 8C38.0578 8 42 11.927 42 17C42 20.1125 40.6141 23.1024 37.764 26.5893C34.8919 30.1031 30.7458 33.8728 25.5565 38.5784L25.5536 38.581L24 39.9954L22.4464 38.581Z" stroke="#2C41FF" stroke-width="4"/>
</svg>
